<svg xmlns="http://www.w3.org/2000/svg" viewBox="0 0 40 40">
	<path fill="currentColor" d="M0 20a20 20 0 0140 0q0 .549-.029 1.09h-.008a17.358 17.358 0 00-15.448-15.5 1.858 1.858 0 00-3.681.007 17.36 17.36 0 00-15.372 15.5 1.86 1.86 0 00.016 3.647A17.364 17.364 0 0020.3 40H20A20 20 0 010 20zm23.053 17.94V23.17H37.76a1.861 1.861 0 001.5 1.569c-.052.467-.126.931-.219 1.39A20.042 20.042 0 0125.35 39.275c-.283.045-.567.085-.853.116a1.859 1.859 0 00-1.444-1.451zm-12.122-3.329a16.633 16.633 0 01-4.768-9.871 1.858 1.858 0 001.512-1.57h14.7v14.757a1.859 1.859 0 00-1.519 1.457 16.635 16.635 0 01-9.925-4.773zM23.053 22.49V7.665a1.858 1.858 0 001.432-1.4 16.643 16.643 0 0114.793 14.816 1.856 1.856 0 00-1.488 1.409zm-15.407 0a1.864 1.864 0 00-.356-.736L21.649 7.4a1.854 1.854 0 00.724.283V22.49zm-1.5-1.41a16.645 16.645 0 0114.719-14.8 1.842 1.842 0 00.293.646L6.773 21.308a1.838 1.838 0 00-.625-.228z"/>
</svg>
